My.Way.2011.DVDRip.XviD-EXViD

EXViD aims to iNTERNAL those releases which have been lost in the archives
EXViD aims to PRE non-internal releases which have poor sources and are likely skipped by others
 
http://www.imdb.com/title/tt1606384
Subtitles: English
Date: 2012.09

Director: Je-kyu Kang

Genre: Action  Drama  History  War

Plot
Inspired by a true story. Jun Shik works for Tatsuo's grandfather's farm while Korea is
colonized by Japan, but he has a dream to participate in Tokyo Olympics as a marathon runner
Tatsuo also aims to become a marathon runner, so the two are in rivalry. But war breaks out
and they both are forced to enlist in the army. Tatsuo becomes the head of defense in Jun

Cast
Dong-gun Jang ...Jun-shik Kim
J Odagiri ...Tatsuo Hasegawa
Bingbing Fan ...Shirai
In-kwon Kim ...Lee Jong-dae
Seung-hyeon Han
Jin-seok Yang
Ji-han Do
Hee-won Kim
Yeon-hee Lee
Ji-woong Wi
Jong-yeol Jeong
Ho-yeon Lee
Michael Arnold ...Father

Stats
Format                           : AVI
Format/Info                      : Audio Video Interleave
File size                        : 1.37 GiB
Duration                         : 2h 17mn
Overall bit rate                 : 1 423 Kbps
Writing application              : Nandub v1.0rc2
Writing library                  : Nandub build 1852/release

Video
ID                               : 0
Format                           : MPEG-4 Visual
Format profile                   : Advanced SimpleL5
Format settings, BVOP            : 2
Format settings, QPel            : No
Format settings, GMC             : No warppoints
Format settings, Matrix          : Default (H.263
Codec ID                         : XVID
Codec ID/Hint                    : XviD
Duration                         : 2h 17mn
Bit rate                         : 1 287 Kbps
Width                            : 640 pixels
Height                           : 272 pixels
Display aspect ratio             : 2.35:1
Frame rate                       : 25.000 fps
Color space                      : YUV
Chroma subsampling               : 4:2:0
Bit depth                        : 8 bits
Scan type                        : Progressive
Compression mode                 : Lossy
Bits/(PixelFrame)               : 0.296
Stream size                      : 1.24 GiB (90
Writing library                  : XviD 64

Audio
ID                               : 1
Format                           : MPEG Audio
Format version                   : Version 1
Format profile                   : Layer 3
Mode                             : Joint stereo
Mode extension                   : MS Stereo
Codec ID                         : 55
Codec ID/Hint                    : MP3
Duration                         : 2h 17mn
Bit rate mode                    : Variable
Bit rate                         : 128 Kbps
Channel(s)                       : 2 channels
Sampling rate                    : 48.0 KHz
Compression mode                 : Lossy
Stream size                      : 121 MiB (9
Alignment                        : Aligned on interleaves
Interleave, duration             : 24 ms (0.60 video frame
Interleave, preload duration     : 143 ms
Writing library                  : LAME3.98r
Encoding settings                : -m j -V 4 -q 3 -lowpass 17 --abr 128

Release notes
enjoy


Poster:

 
http://i.imgur.com/nyP0m.jpg


Screenshots:

 
http://i.imgur.com/31Sg2.jpg

 
http://i.imgur.com/Jw03D.jpg


ENJOY!